<svg width="110" height="258" viewBox="0 0 110 258" fill="none" xmlns="http://www.w3.org/2000/svg">
<path d="M-274.966 191.789C-275.912 229.792 -256.924 282.41 -217.837 272.91C-188.292 265.73 -215.174 229.59 -178.844 209.152C-142.513 188.714 -95.1143 194.857 -72.4435 228.507C-55.7491 253.287 -85.3374 276.935 -72.4435 303.651C-42.806 365.059 104.204 351.54 109.827 284.296C113.555 239.722 55.9859 233.241 38.1884 191.789C16.5641 141.425 60.8953 96.2854 25.7952 53.172C-0.749146 20.5675 -31.0631 -9.94264 -72.4435 3.07618C-126.185 19.9839 -21.0568 117.221 -72.4435 139.701C-96.3169 150.145 -113.813 143.35 -139.85 139.701C-171.678 135.24 -186.615 107.318 -217.837 114.653C-255.678 123.544 -274.053 155.073 -274.966 191.789Z" fill="url(#paint0_linear_102_28)"/>
<defs>
<linearGradient id="paint0_linear_102_28" x1="-275" y1="0" x2="65.7243" y2="382.446" gradientUnits="userSpaceOnUse">
<stop stop-color="#FF6FD8"/>
<stop offset="1" stop-color="#3813C2"/>
</linearGradient>
</defs>
</svg>
